<svg width="150" height="57" viewBox="0 0 150 57" fill="none" xmlns="http://www.w3.org/2000/svg">
<rect width="150" height="57" fill="black"/>
<path d="M29.1328 40.9814L36.49 36.0773L40.572 40.9814H47.5257V16.4609H46.2882V39.7553H41.3947L29.1328 23.8171V40.9814Z" fill="#1AAA11"/>
<path d="M41.3929 16.4609L34.0357 21.365L30.0744 16.4609H23V40.9814H24.2262V17.687H29.1309L41.3929 33.6252V16.4609Z" fill="#1AAA11"/>
<path d="M116.414 20.7336H118.188C118.529 21.2133 119.177 21.3554 119.939 21.3554C120.656 21.3554 121.315 21.16 121.315 20.7691C121.315 20.4938 121.088 20.2273 120.178 20.1651L118.927 20.0763C117.301 19.9608 116.653 19.259 116.653 18.3619C116.653 17.2693 117.835 16.4609 119.7 16.4609C121.599 16.4609 122.771 17.3226 123.134 18.3086H121.361C121.144 17.9177 120.383 17.6957 119.689 17.6957C119.018 17.6957 118.415 17.9 118.415 18.2997C118.415 18.5573 118.7 18.806 119.382 18.8593L120.678 18.957C122.168 19.0725 123.078 19.7476 123.078 20.6981C123.078 21.6929 122.009 22.5901 119.939 22.5901C117.949 22.5901 116.823 21.8617 116.414 20.7336Z" fill="#F1F1F1"/>
<path d="M112.638 19.496L116.106 22.4451H113.809L111.25 20.2599V22.4451H109.477V16.5469H111.25V18.8209L113.945 16.5469H116.106L112.638 19.496Z" fill="#F1F1F1"/>
<path d="M106.077 16.5469H107.851V22.4451H105.941L102.711 18.6699V22.4451H100.938V16.5469H102.848L106.077 20.3221V16.5469Z" fill="#F1F1F1"/>
<path d="M99.2963 16.5469V22.4451H97.5234V16.5469H99.2963Z" fill="#F1F1F1"/>
<path d="M92.7973 16.5469V21.2104H96.4361V22.4451H91.0234V16.5469H92.7973Z" fill="#F1F1F1"/>
<path d="M89.434 18.4034C89.434 19.2206 88.8996 19.949 87.7624 20.2066L89.9457 22.4451H87.7397L85.636 20.2777H84.7036V22.4451H82.9297V16.5469H86.7618C88.5925 16.5469 89.434 17.4085 89.434 18.4034ZM87.6601 18.4034C87.6601 18.0481 87.2962 17.7816 86.6253 17.7816H84.7036V19.0518H86.6253C87.2962 19.0518 87.6601 18.7587 87.6601 18.4034Z" fill="#F1F1F1"/>
<path d="M81.483 17.7816H77.8442V18.8742H81.4034V20.1H77.8442V21.2104H81.483V22.4451H76.0703V16.5469H81.483V17.7816Z" fill="#F1F1F1"/>
<path d="M74.8481 18.4034C74.8481 19.416 74.0066 20.2777 72.1758 20.2777H70.1177V22.4451H68.3438V16.5469H72.1758C74.0066 16.5469 74.8481 17.4085 74.8481 18.4034ZM73.0742 18.4034C73.0742 18.0481 72.7103 17.7816 72.0394 17.7816H70.1177V19.0518H72.0394C72.7103 19.0518 73.0742 18.7587 73.0742 18.4034Z" fill="#F1F1F1"/>
<path d="M63.6617 19.0163L65.5948 16.5469H67.5393L64.5486 20.4376V22.4451H62.7747V20.4376L59.75 16.5469H61.7058L63.6617 19.0163Z" fill="#F1F1F1"/>
<path d="M58.942 22.4451H57.1681V20.1H53.9614V22.4451H52.1875V16.5469H53.9614V18.8742H57.1681V16.5469H58.942V22.4451Z" fill="#F1F1F1"/>
<path d="M122.991 27.6608H114.818V31.8179H122.826V34.1506H114.818V38.3309H122.991V40.6635H112.234V25.3281H122.991V27.6608Z" fill="#F1F1F1"/>
<path d="M102.993 27.3405C99.8693 27.3405 97.5443 29.7424 97.5443 32.9757C97.5443 36.2091 99.8693 38.611 102.993 38.611C104.778 38.611 106.187 37.8258 107.079 36.6248H109.921C108.676 39.2115 106.257 40.9437 102.993 40.9437C98.4367 40.9437 94.9609 37.5255 94.9609 32.9757C94.9609 28.4259 98.4367 25.0078 102.993 25.0078C106.257 25.0078 108.676 26.7631 109.921 29.3498H107.079C106.187 28.1488 104.778 27.3405 102.993 27.3405Z" fill="#F1F1F1"/>
<path d="M82.5319 37.1992L80.9819 40.6635H78.3281L85.1388 25.3281H87.7926L94.6033 40.6635H91.8555L90.3055 37.1992H82.5319ZM89.2722 34.8665L86.4305 28.4691L83.5653 34.8665H89.2722Z" fill="#F1F1F1"/>
<path d="M79.2369 29.9472C79.2369 32.4415 77.5929 34.5663 73.9293 34.5663H68.9974V40.6635H66.4141V25.3281H73.9293C77.5929 25.3281 79.2369 27.4529 79.2369 29.9472ZM76.6535 29.9472C76.6535 28.4922 75.5732 27.6608 73.8353 27.6608H68.9974V32.2337H73.8353C75.5732 32.2337 76.6535 31.4022 76.6535 29.9472Z" fill="#F1F1F1"/>
<path d="M50.9453 36.6248H53.6461C54.3506 37.9182 55.9476 38.611 57.8499 38.611C60.034 38.611 61.5371 37.6872 61.5371 36.3477C61.5371 35.0774 60.5977 34.4307 58.5545 34.2229L55.8537 33.9457C52.7067 33.6455 51.368 31.9364 51.368 29.7193C51.368 26.9478 53.7165 25.0078 57.4742 25.0078C61.3257 25.0078 63.5098 27.2481 64.2144 29.3498H61.4901C60.9265 28.1488 59.259 27.3405 57.4272 27.3405C55.1726 27.3405 53.9514 28.4028 53.9514 29.6269C53.9514 30.8279 54.9143 31.4976 56.5348 31.6593L59.4234 31.9595C62.359 32.2598 64.1204 33.8996 64.1204 36.2322C64.1204 38.6341 62.0068 40.9437 57.8499 40.9437C53.74 40.9437 51.6968 38.8882 50.9453 36.6248Z" fill="#F1F1F1"/>
<path d="M125.773 15.4517C125.096 15.4517 124.547 14.9028 124.547 14.2258C124.547 13.5488 125.096 13 125.773 13C126.45 13 126.999 13.5488 126.999 14.2258C126.999 14.9028 126.45 15.4517 125.773 15.4517Z" fill="#F1F1F1"/>
</svg>
