<svg width="32" height="32" viewBox="0 0 32 32" fill="none" xmlns="http://www.w3.org/2000/svg">
<rect x="21" y="12.5" width="1" height="7" fill="#1AAA11"/>
<rect x="10" y="12.5" width="1" height="7" fill="#1AAA11"/>
<path fill-rule="evenodd" clip-rule="evenodd" d="M10 14.8V28L17.1563 21.5594L10 11.5051V14.8ZM14.6389 10.625L20.625 18.4375L22 17.2V4L14.6389 10.625Z" fill="#1AAA11"/>
<path d="M22 19.3613V5V4L13.7408 8.7887L16 11.6807L22 19.3613Z" fill="#1AAA11"/>
<path d="M10 28L17.9358 23.3615L15.6843 20.3193L10 28Z" fill="#1AAA11"/>
<path fill-rule="evenodd" clip-rule="evenodd" d="M10 4L13.7408 8.7887L16 11.6807L22 19.3613V20.986L9.51221 5H5V27V28H4V4H10ZM27 5V27H21.8726L10 10.9577V12.6387L15.6843 20.3193L17.9358 23.3615L21.3687 28H28V4H27V5Z" fill="#1AAA11"/>
</svg>
