<svg width="30" height="30" viewBox="0 0 30 30" fill="none" xmlns="http://www.w3.org/2000/svg">
<path d="M10.9328 5.67057C12.0147 5.69918 13.3391 6.0386 13.839 6.18099C14.4692 6.36063 15.0203 6.7434 15.4588 7.16407C15.918 7.60473 16.2135 8.08126 16.4223 8.47527C16.5214 8.66216 16.6243 8.87602 16.7049 9.14324C16.7885 9.42085 16.8615 9.79738 16.7973 10.2175C16.7311 10.6505 16.5252 11.085 16.1242 11.4766C15.3663 12.2159 14.6359 12.5285 14.1828 12.7292C13.9842 12.8171 13.1935 13.1361 12.5838 13.2565C12.3334 13.3059 11.955 13.3418 11.5343 13.3698C11.6599 13.4759 11.8041 13.596 11.9588 13.7331C12.4471 14.1657 13.0889 14.7585 13.8299 15.4571C14.7617 16.3355 15.8896 17.6659 16.1906 18.056C16.3993 18.3266 17.1773 19.2552 18.0239 20.2774C18.4751 20.8222 18.7874 21.1968 18.9679 21.3868C19.2214 21.6537 19.21 22.0759 18.9431 22.3295C18.6762 22.5824 18.2552 22.5714 18.0017 22.3047C17.7816 22.073 17.432 21.6535 16.9965 21.1277C16.1702 20.13 15.3617 19.1643 15.1346 18.8698C14.8648 18.5201 13.7844 17.2459 12.9158 16.4271C12.1785 15.732 11.5478 15.1497 11.0747 14.7305C10.8379 14.5207 10.6449 14.356 10.5005 14.2396C10.4281 14.1813 10.3718 14.1386 10.3325 14.1107C10.3179 14.1004 10.3083 14.0935 10.3026 14.0899C9.96722 13.9437 9.68335 13.8534 9.22967 13.6771C8.91132 13.5534 8.44302 13.4142 8.02785 13.2839C8.01942 13.7061 8.01341 14.0959 8.00572 14.4037C7.98324 15.3032 7.9562 15.4043 7.95233 16.1589C7.94184 18.2151 7.88996 19.6061 7.87811 19.8347C7.84759 20.4238 7.84157 21.1325 7.84687 21.7188C7.8495 22.0105 7.85541 22.269 7.86119 22.4636C7.86409 22.5611 7.86751 22.6414 7.8703 22.7006C7.87266 22.7504 7.87384 22.7741 7.87421 22.78C7.91941 23.1452 7.65998 23.478 7.29479 23.5235C6.92962 23.5687 6.59678 23.3093 6.5513 22.9441C6.53495 22.8123 6.51873 22.3048 6.51354 21.7305C6.50814 21.1323 6.51356 20.3936 6.54609 19.7657C6.55659 19.5631 6.60859 18.194 6.61901 16.1524C6.62284 15.4038 6.65241 15.1696 6.67239 14.3698C6.69327 13.534 6.71466 11.9885 6.75703 10.9141C6.77846 10.3706 6.80468 9.95453 6.82994 9.59376C6.85538 9.23056 6.87934 8.93644 6.89505 8.6172C6.91106 8.29182 6.91773 7.96456 6.9302 7.63673C6.94186 7.33039 6.9585 7.01037 6.99791 6.77344C7.03536 6.5486 7.12384 6.19393 7.46666 5.98177C7.614 5.89086 7.76235 5.85751 7.85989 5.84115C7.95282 5.82561 8.05923 5.81765 8.13072 5.8112C9.04211 5.7288 10.0982 5.64856 10.9328 5.67057ZM23.253 5.58594C23.6211 5.58601 23.9197 5.88446 23.9197 6.25261C23.9197 7.03301 23.9196 7.77465 23.9301 8.1836C23.9396 8.55387 23.9731 8.99739 23.9731 9.57684C23.9731 10.3189 24.0414 12.0235 24.0707 12.8854C24.1008 13.7704 24.1871 14.6026 24.0278 15.655C24.0016 15.8275 23.976 16.0537 23.8871 16.3125C23.7972 16.5742 23.6524 16.8487 23.4184 17.2058C23.245 17.4702 23.054 17.7502 22.7726 17.9571C22.4729 18.1772 22.1353 18.2722 21.7517 18.3269C21.413 18.3751 21.1695 18.4024 20.908 18.3959C20.6568 18.3896 20.4034 18.3522 20.059 18.3021C19.5249 18.2242 19.1556 17.9734 18.9067 17.6381C18.697 17.3553 18.5768 16.9992 18.5148 16.8477C18.3153 16.3603 18.2172 15.8264 18.1489 15.4453C18.0714 15.0133 17.9814 14.4111 17.9184 13.6446C17.8565 12.8905 17.7791 11.2924 17.7791 10.763C17.7791 10.2677 17.7221 7.82104 17.7153 7.50001C17.7047 6.99797 17.7049 6.67783 17.7049 6.63282C17.705 6.26487 18.0036 5.96643 18.3715 5.96615C18.7397 5.96615 19.0381 6.2647 19.0382 6.63282C19.0382 6.67148 19.0383 6.98128 19.0486 7.47136C19.055 7.772 19.1124 10.2487 19.1124 10.763C19.1124 11.2439 19.1864 12.8029 19.2465 13.5352C19.3056 14.2548 19.3892 14.8145 19.4601 15.2097C19.5303 15.6016 19.6102 16.0029 19.7491 16.3425C19.8071 16.4842 19.8298 16.5525 19.8754 16.6563C19.9137 16.7433 19.9461 16.8021 19.977 16.8438C20.0048 16.8812 20.0317 16.9051 20.0616 16.9232C20.0926 16.9418 20.15 16.967 20.2517 16.9818C20.6201 17.0354 20.7861 17.0586 20.9405 17.0625C21.0849 17.0661 21.237 17.0531 21.5642 17.0065C21.8453 16.9665 21.9349 16.9174 21.9822 16.8829C22.0474 16.8349 22.125 16.7481 22.3038 16.4753C22.5071 16.1651 22.5871 15.9942 22.6267 15.8789C22.6671 15.7611 22.6763 15.6772 22.7101 15.4545C22.8455 14.5602 22.772 13.9088 22.7387 12.9297C22.7103 12.0956 22.6398 10.349 22.6397 9.57684C22.6397 9.00205 22.6088 8.68769 22.5968 8.21876C22.5857 7.78823 22.5864 7.02368 22.5864 6.25261C22.5864 5.88459 22.8851 5.58622 23.253 5.58594ZM10.8976 7.00391C10.1627 6.98452 9.19841 7.05322 8.29738 7.13412C8.28371 7.27272 8.27092 7.45903 8.26223 7.68751C8.25095 7.984 8.24206 8.35105 8.22577 8.6823C8.20916 9.01994 8.18521 9.337 8.16067 9.68751C8.13594 10.0406 8.10977 10.4421 8.08905 10.9675C8.07958 11.2076 8.07445 11.4705 8.06692 11.7435C8.21254 11.7625 8.39376 11.7919 8.58644 11.8386C9.02795 11.9455 9.47564 12.0439 9.80128 12.0638C10.6254 12.1139 11.8587 12.0401 12.326 11.9479C12.7885 11.8565 13.4718 11.5865 13.6437 11.5104C14.0788 11.3177 14.6171 11.084 15.1919 10.5235C15.3914 10.3288 15.4583 10.1553 15.4796 10.0156C15.5029 9.86283 15.4791 9.70001 15.4275 9.52866C15.3814 9.37535 15.3214 9.24504 15.244 9.09897C15.0712 8.77302 14.8541 8.43189 14.5356 8.12631C14.1966 7.80115 13.8292 7.56499 13.4731 7.46355C12.9854 7.32463 11.7998 7.02777 10.8976 7.00391Z" fill="#818181"/>
</svg>
