<svg width="30" height="30" viewBox="0 0 30 30" fill="none" xmlns="http://www.w3.org/2000/svg">
<path d="M14.5801 10.7077C14.7267 9.99837 15.192 8.14685 15.4573 7.32077C15.6043 6.8631 15.7848 6.23734 15.9022 5.63923C15.9875 5.20489 16.6115 2.90921 16.8553 2.38894C17.1234 1.81669 17.6271 1.21099 17.9972 1.10376C18.1826 1.05004 18.3469 0.971113 18.5157 1.01043C18.7058 1.0547 18.8547 1.23562 19.0131 1.35397C19.4158 1.65491 19.2787 2.45011 19.1524 3.03432C19.0383 3.56213 18.3898 5.51611 18.3041 5.94027C18.2134 6.38893 18.0292 6.787 17.9972 7.47487C17.9733 7.9868 17.7969 8.45504 17.5957 8.8923C17.4945 9.11229 17.5005 9.38278 17.3634 9.59407C17.0352 9.93959 16.5719 9.99281 16.0006 10.0587C15.748 10.0722 15.3291 10.0722 14.8974 9.99281" stroke="#FAFAFA" stroke-linecap="round"/>
<path d="M15.4727 8.34873C15.8503 8.34873 16.1978 7.72754 16.6526 7.55557C16.8745 7.48925 17.1499 7.46224 17.4457 7.44914C17.5739 7.43603 17.6577 7.40982 17.9345 7.38281" stroke="#FAFAFA" stroke-linecap="round"/>
<path d="M17 4.48207C17.252 4.48207 17.3443 4.52971 17.6938 4.44949C18.1904 4.31684 18.657 4.26441 18.8258 4.17188" stroke="#FAFAFA" stroke-linecap="round"/>
<path d="M18.0091 8.00667C18.1355 8.11152 18.4306 8.53409 18.7696 8.80018C19.083 9.04628 19.4462 8.98684 19.7956 8.94673C20.1928 8.90113 20.6509 8.80097 21.0546 8.70884C21.4145 8.62669 21.6474 8.27356 21.8699 8.0861C22.1323 7.865 21.5433 8.90423 21.2898 9.3685C20.9896 9.91803 20.5709 10.1497 20.2951 10.5997C19.9399 11.1794 19.1326 11.6589 18.7721 11.8849C18.4572 12.0822 18.0955 12.11 17.6937 12.2689C16.9051 12.5807 15.6467 12.4548 14.6165 12.6526C13.9144 12.7874 13.3147 12.5342 12.8799 12.3892C12.4747 12.2542 12.0858 12.2435 11.9589 12.0199C11.5675 11.3305 11.5996 10.7105 11.3137 10.0345C11.0881 9.50136 10.8595 8.77714 10.531 8.32598C10.2522 7.94307 10.0547 7.55868 9.8325 7.13453C9.62622 6.74067 9.33614 6.41965 8.94483 6.20678C8.37042 5.8943 7.89783 6.25761 7.54778 6.50981C7.24798 6.72579 7.24025 7.31563 6.8921 8.29421C6.71262 8.79868 6.81625 9.35381 6.91146 10.0298C6.9802 10.5178 7.17551 10.9694 7.42908 11.5783C7.80149 12.4724 8.04255 12.9028 8.34945 13.3138C8.6156 13.6703 8.93118 14.0148 9.23776 14.4521C9.65862 15.0523 10.0521 15.2857 10.5066 15.8544C11.1747 16.6904 11.3648 17.2444 11.5447 17.7218C11.7531 18.2746 11.8306 18.5963 11.8418 18.7421C11.873 19.1515 11.135 18.4931 10.6691 17.9772C10.3242 17.5952 9.8452 17.354 8.93594 17.1551C8.34227 17.0252 7.96131 16.9299 7.33736 16.8898C6.93809 16.8641 6.56489 16.744 5.7829 16.5991C5.33537 16.5161 4.95648 16.4533 4.61753 16.3473C4.53248 16.3206 4.44869 16.2944 4.39506 16.2285C4.16093 15.9407 4.15163 15.3699 4.04532 14.9187C3.94776 14.5047 4.06531 13.9671 4.22431 13.489C4.3596 13.0821 4.40426 12.6422 4.48899 12.0731C4.5709 11.523 4.76352 11.0012 4.94346 10.4972C5.10004 10.0587 5.52393 9.7033 5.88446 9.43721C5.96951 9.38399 6.0533 9.33157 6.13835 9.29146C6.22341 9.25135 6.30719 9.22513 6.58393 9.1187" stroke="#FAFAFA" stroke-linecap="round"/>
<path d="M10.3906 7.84697C10.5379 7.71512 10.8756 7.55626 11.4252 7.30526C11.807 7.13093 12.2288 6.97483 12.6846 6.78857C13.1656 6.59197 13.5414 6.52367 13.9331 6.50977C14.2828 6.6023 14.6205 6.76037 15.0121 6.82749C15.108 6.84059 15.1918 6.8668 15.3416 6.97324" stroke="#FAFAFA" stroke-linecap="round"/>
<path d="M8.29419 17.2983C8.35703 17.4825 8.65218 17.9575 8.94892 18.3559C9.31703 18.85 9.68807 19.5445 9.94387 20.0898C10.16 20.5507 10.2822 21.0553 10.4094 21.5065C10.5824 22.1196 10.8534 22.8822 10.9702 23.5443C11.0228 23.8424 11.087 24.2587 11.0451 24.6956C11.0301 24.852 10.9194 24.8441 10.8344 24.8179C10.483 24.7096 10.1997 24.3961 9.94545 24.051C9.64441 23.6423 8.90988 23.7591 8.54935 23.64C8.1875 23.5204 7.87273 23.1777 7.58646 22.7805C7.2094 22.2574 6.56137 21.9592 6.20084 21.655C5.80851 21.324 5.41885 20.8488 5.15321 20.3845C4.84753 19.8503 4.59242 19.419 4.46516 18.863C4.27442 17.9083 4.21095 17.5643 4.17921 17.0774C4.16842 16.7216 4.16842 16.1449 4.2319 15.5508" stroke="#FAFAFA" stroke-linecap="round"/>
<path d="M5.63086 21.2715C5.6937 21.4558 5.94696 21.9308 6.24338 22.4081C6.60326 22.9877 7.00315 24.1246 7.29101 24.9229C7.5267 25.5765 7.80927 26.0881 7.99968 26.4861C8.20019 26.9051 8.54936 27.2272 8.8772 27.6374C9.24879 28.1024 9.64872 28.3916 10.1146 28.5787C10.542 28.7503 11.1086 28.7634 11.4691 28.9095C11.8172 29.0506 12.1458 29.1875 12.5266 29.2407C12.8259 29.2826 13.287 29.3734 13.7418 29.321C13.908 29.3018 13.9243 29.1637 13.8932 29.0704C13.7492 28.6383 13.334 28.4742 12.995 28.3412C12.6684 28.213 12.2981 27.7085 11.8106 27.3094C11.4557 27.0187 11.1759 26.7268 10.8684 26.3566C10.7094 25.9325 10.5399 25.5099 10.3288 25.0988C10.2651 25.0055 10.2022 24.9269 10.074 24.6076" stroke="#FAFAFA" stroke-linecap="round"/>
<path d="M14.2012 29.0587C14.5795 29.0587 15.3412 29.0062 16.4081 28.9661C16.8928 28.9479 17.225 28.8204 17.6687 28.6885C18.5152 28.437 18.9172 28.5821 19.2778 28.5162C19.6172 28.4541 19.9963 28.2389 20.399 27.9478C20.5678 27.8258 20.6958 27.7084 20.7913 27.6297C21.2299 27.2687 20.254 26.4391 20.1363 26.0157C19.9758 25.4387 19.7246 25.0363 19.4177 24.3091C19.0047 23.3304 18.3917 22.2308 18.0743 21.5418C17.6734 20.7076 17.1772 19.0547 18.3996 19.116C18.8261 19.3615 19.4453 19.473 19.849 19.7248C20.2004 19.9439 20.6526 20.1609 21.0649 20.4524C21.7989 20.9714 22.3651 21.0886 22.8739 21.1816C23.567 21.3082 24.1221 20.9044 24.4826 20.7983C24.8282 20.6967 25.2849 20.1927 25.5518 19.6875C25.746 19.3199 25.7317 18.7883 25.7638 18.3241C25.8003 17.7959 25.9438 16.6501 25.9964 15.8224C26.042 15.106 25.6911 14.6309 25.2897 14.154C24.87 13.6553 24.4013 13.4395 24.0408 13.1603C23.6658 12.8698 23.1954 12.6706 22.8243 12.5904C22.4184 12.5026 21.2988 12.3783 20.5498 12.1674C20.2108 12.0344 19.9779 11.9025 19.8408 11.7571C19.7665 11.6904 19.6827 11.638 19.5964 11.584" stroke="#FAFAFA" stroke-linecap="round"/>
<path d="M16.3341 14.574C16.4179 14.4159 16.7556 14.1514 17.157 13.8337C17.5843 13.4956 18.0682 13.8321 18.2266 13.9639C18.3943 14.1036 18.4497 14.3611 18.4709 14.5724C18.514 15.0005 18.2815 15.4191 18.0384 15.7642C17.7799 16.1311 17.1212 16.0832 16.6632 15.9648C16.4401 15.5811 16.3557 15.2634 16.2817 15.0521C16.2497 14.9457 16.2287 14.8409 16.3976 14.574" stroke="#FAFAFA" stroke-linecap="round"/>
<path d="M22.1328 17.459C22.2801 17.5114 22.8691 17.9324 23.3375 18.1866C23.6765 18.3589 24.5169 18.4121 25.1675 18.4912C25.2633 18.5178 25.3471 18.544 25.5604 18.571" stroke="#FAFAFA" stroke-linecap="round"/>
<path d="M24.166 15.7096C24.187 15.7096 24.2079 15.7096 24.2396 15.7621C24.2714 15.8145 24.3133 15.9193 24.3349 15.9209C24.3564 15.9225 24.3564 15.8177 24.2295 15.5508" stroke="#FAFAFA" stroke-linecap="round"/>
</svg>
